War.Horse.2011.DvDScrRiP.x264.AC3(5.1).SWESUB.mkv-Zen_Bud

Format                                   : Matroska
Format version                           : Version 2
File size                                : 1.73 GiB
Duration                                 : 2h 26mn
Overall bit rate                         : 1 690 Kbps
Encoded date                             : UTC 2012-03-12 20:53:07
Writing application                      : mkvmerge v5.2.1 ('A Far Off Place') 
Writing library                          : libebml v1.2.3 + libmatroska v1.3.0

Video
ID                                       : 1
Format                                   : AVC
Format/Info                              : Advanced Video Codec
Format profile                           : Main@L3.0
Format settings, CABAC                   : Yes
Format settings, ReFrames                : 4 frames
Muxing mode                              : Header stripping
Codec ID                                 : V_MPEG4/ISO/AVC
Duration                                 : 2h 26mn
Bit rate                                 : 1 208 Kbps
Width                                    : 720 pixels
Height                                   : 358 pixels
Display aspect ratio                     : 2.40:1
Original display aspect ratio            : 2.40:1
Frame rate mode                          : Variable
Frame rate                               : 23.976 fps
Color space                              : YUV
Chroma subsampling                       : 4:2:0
Bit depth                                : 8 bits
Scan type                                : Progressive
Bits/(Pixel*Frame)                       : 0.196
Stream size                              : 1.24 GiB (72%)
Writing library                          : x264 core 120


Audio
ID                                       : 2
Format                                   : AC-3
Format/Info                              : Audio Coding 3
Mode extension                           : CM (complete main)
Muxing mode                              : Header stripping
Codec ID                                 : A_AC3
Duration                                 : 2h 26mn
Bit rate mode                            : Constant
Bit rate                                 : 448 Kbps
Channel(s)                               : 6 channels
Channel positions                        : Front: L C R, Side: L R, LFE
Sampling rate                            : 48.0 KHz
Bit depth                                : 16 bits
Compression mode                         : Lossy
Stream size                              : 470 MiB (27%)
Language                                 : English
Default                                  : Yes
Forced                                   : No

Text
ID                                       : 3
Format                                   : UTF-8
Codec ID                                 : S_TEXT/UTF8
Codec ID/Info                            : UTF-8 Plain Text
Language                                 : Swedish
Default                                  : Yes
Forced                                   : No

